<?xml version="1.0" encoding="UTF-8" ?>
<!DOCTYPE svg PUBLIC "-//W3C//DTD SVG 1.1//EN" "http://www.w3.org/Graphics/SVG/1.1/DTD/svg11.dtd">
<svg width="1024pt" height="1024pt" viewBox="0 0 1024 1024" version="1.1" xmlns="http://www.w3.org/2000/svg">
<g id="#3285ebff">
<path fill="#3285eb" opacity="1.00" d=" M 154.19 31.34 C 160.45 30.67 166.71 29.59 173.03 29.67 C 399.00 29.65 624.96 29.66 850.93 29.66 C 857.59 29.52 864.18 30.65 870.79 31.37 C 871.68 31.44 872.59 31.51 873.51 31.57 L 873.39 32.38 C 875.93 32.42 878.59 32.22 880.98 33.31 C 882.27 33.47 883.58 33.60 884.90 33.75 C 887.36 34.67 889.95 35.17 892.52 35.77 L 892.50 36.37 C 893.25 36.34 894.73 36.27 895.48 36.24 L 895.55 37.34 C 896.84 37.38 898.15 37.42 899.46 37.47 L 899.32 38.55 C 900.12 38.52 901.73 38.46 902.53 38.43 L 902.57 39.53 C 903.43 39.55 904.30 39.55 905.18 39.55 C 906.44 40.23 907.73 40.91 909.01 41.58 L 910.51 41.37 L 910.55 42.59 C 910.87 42.54 911.50 42.44 911.82 42.39 C 912.99 42.93 914.18 43.45 915.38 43.95 L 915.48 44.80 C 915.99 44.68 916.99 44.43 917.49 44.31 L 917.39 45.76 C 917.92 45.66 918.98 45.45 919.51 45.34 L 919.54 46.83 C 920.01 46.70 920.96 46.43 921.43 46.29 L 921.57 47.75 C 922.04 47.67 922.99 47.50 923.46 47.42 L 923.53 48.66 C 923.99 48.61 924.93 48.51 925.40 48.46 L 925.47 49.74 C 925.95 49.65 926.89 49.47 927.36 49.38 L 927.36 50.71 C 927.69 50.68 928.34 50.62 928.67 50.59 C 929.73 51.69 931.02 52.50 932.48 52.98 L 932.40 53.18 C 933.98 54.06 935.53 55.00 937.08 55.96 C 938.56 56.90 939.95 57.99 941.47 58.90 L 941.51 59.48 C 941.82 59.52 942.45 59.61 942.76 59.66 C 945.28 61.85 947.98 63.82 950.62 65.88 L 950.41 66.68 C 950.80 66.65 951.57 66.59 951.96 66.55 C 952.88 67.57 953.82 68.58 954.77 69.59 L 955.17 69.39 C 955.55 69.76 956.30 70.49 956.68 70.86 L 956.38 71.75 L 957.17 71.30 C 957.57 71.69 958.35 72.47 958.74 72.86 L 958.20 73.70 L 959.63 73.25 L 959.36 74.62 L 960.73 74.28 L 960.35 75.65 L 961.74 75.30 L 961.31 76.72 L 962.17 76.22 C 962.57 76.60 963.38 77.37 963.78 77.75 L 963.22 78.64 L 964.68 78.20 L 964.34 79.59 L 965.76 79.29 L 965.39 80.12 C 965.77 80.51 966.54 81.28 966.92 81.67 L 967.78 81.32 L 967.32 82.75 L 968.13 82.34 C 968.52 82.72 969.31 83.48 969.70 83.86 L 969.23 84.66 L 970.64 84.25 L 970.26 85.59 L 971.58 85.31 L 971.34 86.55 L 972.20 86.50 C 972.57 86.87 973.30 87.62 973.67 87.99 C 973.55 88.37 973.33 89.13 973.21 89.51 L 974.35 88.96 L 974.43 90.27 L 975.65 90.66 L 975.22 91.56 L 976.03 91.59 C 976.79 92.46 977.57 93.32 978.37 94.17 C 978.35 94.52 978.32 95.20 978.30 95.54 L 979.11 95.41 C 980.09 96.74 980.93 98.17 981.95 99.48 L 982.52 99.48 C 982.56 99.82 982.63 100.51 982.67 100.86 C 984.23 101.49 984.38 103.14 984.93 104.46 L 985.77 104.30 L 985.45 105.61 L 986.97 105.58 L 986.22 107.46 L 987.55 107.40 C 987.53 107.71 987.48 108.34 987.45 108.65 L 988.65 108.58 C 988.56 109.04 988.39 109.97 988.30 110.44 L 989.74 110.44 L 989.20 111.75 L 990.09 111.55 C 990.53 112.66 990.99 113.77 991.48 114.87 L 991.27 115.61 L 991.98 115.63 C 992.71 117.20 993.53 118.73 994.40 120.24 C 994.32 120.55 994.14 121.19 994.05 121.51 L 995.42 121.34 C 995.45 122.10 995.52 123.62 995.55 124.38 L 996.78 124.40 C 996.69 124.88 996.50 125.84 996.40 126.32 L 997.27 126.45 C 998.48 130.09 1000.05 133.61 1001.57 137.13 C 1001.53 137.29 1001.47 137.61 1001.43 137.76 C 1002.13 139.29 1002.49 140.92 1002.82 142.57 L 1003.59 142.39 C 1003.59 143.78 1003.59 145.17 1003.61 146.56 L 1004.42 146.46 C 1004.69 147.92 1005.04 149.39 1005.36 150.85 C 1005.85 152.44 1006.34 154.05 1006.82 155.65 C 1006.43 155.62 1005.65 155.56 1005.25 155.53 C 1005.71 155.90 1006.63 156.64 1007.09 157.02 C 1007.83 161.69 1008.30 166.44 1009.39 171.05 C 1010.03 188.67 1009.52 206.33 1009.68 223.96 C 1009.66 409.65 1009.65 595.33 1009.65 781.02 C 1009.55 802.38 1009.83 823.75 1009.51 845.11 C 1008.55 849.06 1008.89 853.23 1007.63 857.09 C 1007.47 859.98 1007.07 862.85 1006.36 865.68 L 1005.95 865.49 C 1005.68 869.96 1003.74 874.08 1003.25 878.52 C 1003.03 878.51 1002.60 878.48 1002.38 878.47 C 1002.39 879.08 1002.41 880.30 1002.42 880.91 C 1002.09 881.84 1001.43 883.69 1001.10 884.62 C 1000.89 884.64 1000.46 884.68 1000.24 884.70 L 1000.86 886.35 C 1000.62 886.40 1000.14 886.52 999.90 886.58 C 999.08 889.38 998.02 892.10 997.09 894.86 C 996.79 894.70 996.21 894.38 995.92 894.22 C 996.14 895.01 996.60 896.58 996.83 897.37 L 995.05 897.68 L 995.72 899.00 C 995.27 899.49 994.37 900.46 993.92 900.95 C 993.76 901.56 993.44 902.77 993.28 903.37 L 992.28 903.48 C 992.40 903.92 992.65 904.81 992.78 905.25 L 991.24 905.46 C 991.37 905.94 991.64 906.90 991.77 907.38 L 990.19 907.58 C 990.33 908.05 990.59 908.98 990.73 909.45 C 990.37 909.51 989.65 909.63 989.29 909.69 L 989.49 911.54 C 989.05 911.52 988.16 911.49 987.71 911.47 C 987.65 912.22 987.51 913.71 987.44 914.45 L 986.33 914.38 C 986.36 914.73 986.44 915.44 986.48 915.80 C 985.05 916.61 984.40 918.02 984.05 919.56 L 983.36 919.26 L 983.53 920.56 L 982.23 920.55 C 982.34 921.02 982.55 921.95 982.65 922.42 L 981.27 922.41 L 981.70 923.81 L 980.30 923.22 L 980.85 924.56 C 980.65 924.59 980.23 924.63 980.02 924.65 C 978.90 926.71 977.48 928.57 976.09 930.44 L 975.46 930.54 C 975.43 930.85 975.36 931.48 975.32 931.79 C 974.48 932.61 973.66 933.45 972.85 934.30 C 972.53 934.38 971.89 934.55 971.57 934.63 C 971.58 935.12 971.62 936.08 971.63 936.56 L 971.03 936.66 C 970.09 937.83 969.03 938.91 968.05 940.04 C 967.35 940.78 966.67 941.53 966.00 942.30 L 965.34 942.37 L 965.27 942.99 C 961.36 946.50 957.82 950.39 954.02 954.01 C 953.29 954.81 952.57 955.63 951.88 956.47 C 951.54 956.45 950.85 956.40 950.51 956.38 L 950.57 957.66 C 950.21 957.65 949.50 957.63 949.14 957.62 C 947.66 959.33 946.06 960.95 944.46 962.56 C 943.97 962.54 943.01 962.50 942.52 962.48 C 942.48 962.97 942.39 963.96 942.35 964.45 C 941.90 964.43 941.00 964.38 940.55 964.35 L 940.39 965.72 C 939.93 965.61 939.02 965.39 938.56 965.29 L 938.67 966.08 C 938.28 966.48 937.48 967.28 937.08 967.68 L 936.32 967.45 L 936.37 968.94 C 935.93 968.71 935.05 968.25 934.60 968.02 L 934.41 969.66 C 933.90 969.61 932.87 969.50 932.36 969.45 L 932.76 970.77 L 931.37 970.12 L 931.56 971.44 C 930.77 971.53 929.21 971.71 928.42 971.80 C 928.44 972.21 928.49 973.05 928.52 973.47 C 927.99 973.44 926.94 973.37 926.41 973.34 L 926.50 974.66 C 926.03 974.58 925.08 974.41 924.60 974.33 L 924.32 975.89 L 922.55 975.32 C 922.51 975.69 922.41 976.44 922.36 976.81 C 921.91 976.70 921.01 976.47 920.56 976.35 L 920.65 977.50 C 919.87 977.59 918.31 977.75 917.53 977.84 C 917.51 978.11 917.46 978.66 917.43 978.93 C 916.19 979.46 914.97 980.02 913.77 980.61 L 912.65 980.25 C 912.61 980.54 912.54 981.11 912.50 981.39 C 910.52 981.95 908.55 982.54 906.54 983.00 C 906.52 983.32 906.47 983.96 906.45 984.29 C 905.46 984.33 903.48 984.42 902.49 984.47 C 902.53 984.73 902.60 985.26 902.64 985.52 C 901.81 985.52 900.13 985.50 899.30 985.50 L 899.66 986.22 C 898.09 986.56 896.57 986.97 895.05 987.42 C 892.05 988.58 888.84 989.05 885.87 990.25 C 884.37 990.34 882.91 990.44 881.44 990.53 L 881.50 991.48 C 879.42 991.50 877.36 991.53 875.31 991.55 L 875.53 992.48 C 869.27 992.18 863.26 994.36 857.02 994.27 C 629.68 994.28 402.34 994.26 174.99 994.28 C 168.66 994.37 162.30 993.91 156.08 992.75 C 154.20 992.67 152.33 992.53 150.45 992.43 L 150.67 991.67 C 147.08 991.72 143.66 990.59 140.15 990.09 C 138.76 989.64 137.35 989.30 135.93 988.98 C 133.40 988.22 130.83 987.59 128.30 986.83 C 127.24 986.44 126.18 986.05 125.13 985.66 C 122.60 984.85 120.12 983.88 117.57 983.13 L 117.34 982.37 C 116.91 982.44 116.05 982.57 115.61 982.63 L 115.41 981.25 C 114.93 981.40 113.97 981.70 113.49 981.85 L 113.68 980.53 C 112.89 980.51 111.30 980.47 110.51 980.45 L 110.50 979.13 C 110.16 979.23 109.47 979.44 109.13 979.55 C 108.23 979.07 107.34 978.58 106.46 978.09 L 106.28 977.35 L 104.58 977.67 C 104.53 977.34 104.44 976.67 104.39 976.33 L 102.71 976.73 L 102.43 975.25 C 101.99 975.41 101.10 975.72 100.66 975.87 L 100.65 974.44 L 99.29 974.59 L 99.41 973.16 C 98.96 973.32 98.07 973.65 97.62 973.82 C 97.54 973.43 97.38 972.66 97.30 972.27 L 95.91 972.65 C 95.43 972.20 94.46 971.31 93.98 970.87 C 92.81 970.27 91.63 969.64 90.45 969.10 L 90.53 968.08 C 90.19 968.20 89.51 968.43 89.17 968.54 C 88.31 967.69 87.46 966.85 86.59 966.03 L 86.39 965.36 C 85.94 965.50 85.03 965.78 84.57 965.92 L 84.65 964.43 L 83.31 964.76 L 83.74 963.40 L 82.43 963.81 C 82.41 963.43 82.37 962.66 82.35 962.28 L 80.55 962.82 L 80.42 961.96 C 79.23 961.01 78.07 960.01 76.90 959.05 C 75.91 958.40 74.92 957.75 73.95 957.11 C 72.62 955.61 71.24 954.18 69.86 952.74 C 69.69 952.61 69.33 952.34 69.16 952.21 C 68.11 951.44 67.08 950.64 65.99 949.95 C 62.89 946.95 59.61 944.07 57.08 940.56 L 56.42 940.59 C 56.42 940.11 56.43 939.16 56.43 938.69 C 56.08 938.61 55.39 938.47 55.04 938.40 C 53.41 936.42 51.63 934.57 50.01 932.60 L 49.19 932.40 C 49.27 932.09 49.43 931.48 49.51 931.18 C 48.05 929.87 46.69 928.46 45.27 927.12 C 45.42 926.72 45.74 925.93 45.89 925.53 L 44.37 925.83 L 44.75 924.39 L 43.41 924.80 L 43.72 923.45 L 42.35 923.38 C 42.44 922.93 42.62 922.02 42.71 921.57 L 41.94 921.37 C 41.18 920.51 40.41 919.65 39.63 918.81 C 39.68 918.45 39.77 917.72 39.82 917.36 L 38.93 917.56 C 38.57 916.05 38.00 914.65 36.66 913.78 C 36.63 913.45 36.58 912.79 36.55 912.46 L 35.42 912.47 C 35.49 912.00 35.62 911.05 35.69 910.58 L 34.27 910.49 C 34.41 910.02 34.70 909.08 34.84 908.62 L 33.30 908.51 L 33.61 906.57 C 33.25 906.57 32.52 906.55 32.16 906.55 L 32.70 905.26 L 31.24 905.32 C 31.36 904.85 31.59 903.92 31.70 903.46 L 30.36 903.36 C 30.45 902.90 30.62 901.99 30.71 901.54 L 29.64 901.62 C 29.57 900.82 29.45 899.23 29.39 898.43 L 28.26 898.55 C 28.40 898.04 28.67 897.04 28.80 896.54 L 27.24 896.42 C 27.40 895.93 27.72 894.94 27.87 894.45 L 26.48 894.47 C 26.47 893.72 26.46 892.21 26.45 891.46 L 25.59 891.64 C 24.90 889.31 24.31 886.95 24.01 884.55 C 23.74 884.56 23.21 884.57 22.94 884.58 C 22.60 882.99 22.27 881.42 21.61 879.95 C 21.58 879.29 21.52 877.97 21.49 877.31 L 20.42 877.56 C 20.43 876.52 20.44 874.43 20.44 873.38 C 20.19 873.44 19.69 873.57 19.44 873.63 C 19.41 872.59 19.35 870.51 19.32 869.47 C 19.12 869.46 18.74 869.42 18.54 869.40 C 17.99 866.84 17.80 864.19 16.77 861.77 C 16.56 859.36 16.51 856.96 16.47 854.56 C 16.22 854.57 15.74 854.58 15.49 854.59 C 15.45 851.54 15.42 848.50 15.44 845.47 C 15.21 845.48 14.74 845.51 14.51 845.52 C 14.08 792.69 14.43 739.84 14.31 687.00 C 14.32 540.01 14.29 393.01 14.30 246.01 C 14.38 222.49 14.11 198.96 14.44 175.44 L 15.39 175.53 C 15.38 172.71 15.39 169.89 15.60 167.08 C 17.34 162.42 16.55 157.00 19.04 152.60 C 19.21 151.20 19.36 149.79 19.50 148.39 L 20.42 148.63 C 20.39 147.22 20.37 145.82 20.34 144.42 C 20.62 144.43 21.17 144.46 21.45 144.48 C 21.47 143.48 21.51 141.49 21.53 140.49 L 22.63 140.65 C 22.59 139.85 22.52 138.25 22.48 137.45 L 23.52 137.43 C 23.57 136.80 23.66 135.55 23.71 134.92 C 24.17 133.79 24.60 132.64 25.02 131.49 L 25.96 131.66 L 25.13 130.34 L 26.43 130.66 C 26.42 129.86 26.39 128.25 26.38 127.44 L 27.67 127.43 C 27.56 126.94 27.36 125.96 27.25 125.48 L 28.57 125.33 C 28.56 125.00 28.53 124.32 28.52 123.98 C 29.04 122.80 29.52 121.61 29.98 120.40 L 30.79 120.61 C 30.71 120.21 30.57 119.40 30.49 119.00 C 31.50 117.62 32.33 116.12 33.40 114.78 C 33.39 114.43 33.35 113.73 33.33 113.38 L 34.65 113.22 C 34.56 112.77 34.39 111.88 34.31 111.43 L 35.55 111.30 C 35.50 110.85 35.39 109.96 35.34 109.51 L 36.32 109.67 C 36.78 108.58 37.24 107.49 37.69 106.40 L 38.74 106.51 C 38.63 106.00 38.43 104.98 38.33 104.47 L 39.73 104.62 L 39.39 103.21 L 40.84 103.43 C 40.71 103.00 40.46 102.14 40.34 101.72 C 41.35 100.76 42.36 99.82 43.40 98.90 C 43.40 98.52 43.40 97.77 43.40 97.40 L 44.64 97.57 C 44.59 97.08 44.49 96.09 44.44 95.60 C 44.96 95.53 45.98 95.40 46.50 95.33 C 46.47 94.86 46.43 93.92 46.40 93.45 L 47.77 93.57 C 47.71 93.09 47.59 92.15 47.52 91.67 L 48.60 91.65 L 48.80 91.08 C 49.52 90.21 50.25 89.34 50.97 88.47 L 51.82 88.72 L 51.25 87.35 L 52.13 87.53 C 53.02 86.13 54.02 84.81 54.99 83.46 C 55.42 83.14 56.29 82.51 56.73 82.19 L 56.31 81.42 L 57.56 81.63 L 57.43 80.42 L 58.64 80.55 L 58.43 79.33 L 59.66 79.60 L 59.39 78.31 L 60.14 78.63 C 60.51 78.25 61.26 77.50 61.63 77.12 L 61.25 76.28 L 62.62 76.68 L 62.35 75.39 L 63.57 75.64 L 63.48 74.91 C 64.30 74.12 65.11 73.32 65.92 72.51 L 66.07 72.67 C 66.47 72.27 67.26 71.47 67.66 71.07 L 67.42 70.44 L 68.59 70.62 L 68.42 69.50 L 69.56 69.60 L 69.60 68.50 C 70.07 68.53 71.02 68.57 71.49 68.60 L 71.50 67.17 L 72.89 67.88 L 72.43 66.93 C 73.52 66.11 74.60 65.26 75.68 64.41 L 75.66 63.48 C 76.13 63.57 77.08 63.74 77.55 63.83 L 77.56 63.02 C 78.44 62.20 79.31 61.39 80.19 60.57 C 80.53 60.58 81.20 60.58 81.54 60.58 L 81.41 59.35 C 81.91 59.39 82.91 59.46 83.41 59.50 C 83.46 59.00 83.55 58.02 83.60 57.52 C 84.06 57.54 84.98 57.59 85.44 57.61 L 85.43 56.38 C 85.92 56.45 86.90 56.60 87.38 56.68 L 87.55 55.16 C 88.02 55.29 88.97 55.55 89.45 55.68 L 89.15 54.31 L 90.55 54.70 L 90.46 53.81 C 92.03 52.92 93.64 52.10 95.20 51.19 C 96.09 50.59 96.97 49.97 97.84 49.33 C 98.22 49.39 99.00 49.52 99.38 49.58 L 99.37 48.29 L 100.64 48.61 L 100.57 47.37 C 101.00 47.50 101.87 47.76 102.31 47.89 L 102.47 46.43 C 102.97 46.53 103.96 46.72 104.46 46.82 L 104.60 45.34 C 105.08 45.47 106.03 45.74 106.50 45.87 C 106.53 45.64 106.59 45.18 106.62 44.95 C 107.49 44.56 109.24 43.78 110.11 43.38 C 110.48 43.47 111.20 43.63 111.57 43.71 L 111.46 42.41 C 111.98 42.47 113.02 42.61 113.54 42.67 L 113.47 41.89 C 116.41 41.08 119.28 40.04 121.99 38.64 C 122.86 38.57 123.74 38.51 124.62 38.45 L 124.67 37.32 C 125.14 37.43 126.08 37.65 126.55 37.77 L 126.49 36.77 C 127.52 36.71 129.57 36.60 130.60 36.55 L 130.44 35.92 C 131.96 35.63 133.47 35.31 134.96 34.88 C 135.95 34.70 136.93 34.53 137.92 34.37 C 140.27 33.60 142.76 33.47 145.11 32.70 C 145.77 32.64 147.09 32.51 147.75 32.45 L 147.65 31.89 C 149.83 31.75 152.01 31.54 154.19 31.34 M 371.17 116.08 C 365.46 117.77 361.89 122.84 358.04 127.01 C 302.85 191.27 248.18 255.98 193.73 320.86 C 190.67 324.93 188.42 329.90 188.57 335.07 C 189.04 340.97 191.93 346.72 196.66 350.34 C 202.05 354.72 209.22 355.94 215.98 356.14 C 235.65 356.17 255.33 356.12 275.01 356.19 C 281.00 356.23 287.36 358.01 291.47 362.61 C 295.11 367.14 297.05 373.78 294.36 379.24 C 291.27 386.64 285.62 392.48 280.19 398.21 C 269.32 410.34 256.91 421.03 246.53 433.60 C 232.86 449.65 221.40 467.54 212.13 486.45 C 195.72 518.62 185.57 553.96 182.46 589.94 C 182.43 596.66 181.10 603.29 181.28 610.03 C 181.45 619.00 180.70 628.05 181.98 636.97 C 184.14 667.75 190.64 698.37 202.26 727.01 C 216.63 763.05 237.52 796.55 263.96 824.98 C 277.50 838.99 292.67 851.42 308.85 862.27 C 338.55 881.35 371.68 894.85 405.84 903.51 C 440.26 911.83 476.19 914.73 511.37 909.99 C 540.75 906.32 569.11 896.69 595.58 883.59 C 619.69 871.61 643.87 858.94 664.20 841.04 C 682.60 825.64 697.49 806.57 710.69 786.64 C 713.82 782.21 717.33 777.18 722.94 775.86 C 731.57 774.90 739.01 780.28 746.50 783.70 C 753.95 787.77 762.58 791.00 771.16 788.81 C 776.57 787.55 781.01 783.23 782.46 777.87 C 785.10 769.27 781.58 760.54 778.88 752.44 C 769.21 719.95 758.82 687.69 748.28 655.48 C 745.80 648.75 742.32 641.83 736.10 637.86 C 728.87 632.96 719.26 632.33 711.19 635.38 C 674.87 648.75 638.72 662.56 602.27 675.56 C 598.29 677.02 594.18 679.05 591.86 682.77 C 588.83 687.55 587.44 693.84 589.84 699.18 C 591.38 703.20 594.63 706.41 598.49 708.25 C 606.14 711.97 613.77 715.76 621.22 719.88 C 623.88 721.37 626.78 723.62 626.67 727.01 C 627.28 731.83 625.76 736.79 622.53 740.43 C 613.08 751.06 602.10 760.17 591.24 769.31 C 562.78 792.52 527.77 808.46 490.95 811.43 C 480.64 811.88 470.32 811.82 460.01 811.44 C 424.54 808.64 390.27 795.24 361.37 774.64 C 348.32 765.61 336.90 754.51 326.07 742.96 C 313.82 728.85 303.76 712.88 296.10 695.84 C 287.76 676.63 282.77 655.97 281.34 635.08 C 280.33 626.42 280.30 617.62 281.35 608.96 C 283.25 578.45 291.28 548.04 306.44 521.40 C 314.87 507.05 325.64 494.11 337.98 482.96 C 353.21 468.39 371.76 457.93 390.55 448.69 C 406.12 440.26 421.25 430.40 433.24 417.23 C 446.17 402.56 452.90 383.88 460.05 366.01 C 462.29 359.51 469.36 355.83 475.99 356.12 C 498.00 356.19 520.01 356.15 542.02 356.17 C 547.66 356.28 553.59 356.37 558.77 353.77 C 566.20 350.35 571.41 342.31 570.57 334.02 C 570.58 324.93 563.10 318.68 557.69 312.32 C 504.66 252.20 453.40 190.54 401.66 129.32 C 398.46 125.52 395.78 121.08 391.36 118.56 C 385.49 114.55 377.85 114.65 371.17 116.08 M 707.74 167.29 C 703.97 178.71 701.17 190.43 698.45 202.13 C 697.70 204.59 697.36 207.58 695.08 209.17 C 693.11 210.54 690.63 210.66 688.38 211.23 C 678.14 213.14 668.00 215.67 658.23 219.29 C 655.21 220.45 652.08 221.37 648.85 221.64 C 639.07 212.21 630.50 201.61 620.85 192.05 C 616.91 188.26 611.50 185.81 605.97 186.17 C 600.42 185.99 595.75 189.38 591.38 192.36 C 580.46 200.08 569.55 207.82 558.77 215.75 C 552.36 220.30 546.80 227.60 547.61 235.84 C 549.13 245.25 557.61 250.81 563.47 257.51 C 569.65 264.65 576.35 271.32 582.52 278.47 C 591.80 288.52 602.14 298.59 606.14 312.08 C 610.35 325.94 609.72 341.30 604.48 354.81 C 598.55 370.43 586.84 383.99 571.82 391.47 C 563.90 395.49 555.77 399.07 547.84 403.06 C 546.29 406.78 545.02 411.19 541.13 413.15 C 530.45 418.97 519.88 425.01 509.41 431.20 C 501.74 435.44 498.03 446.02 502.24 453.89 C 510.29 469.60 519.07 484.93 528.05 500.13 C 530.51 504.37 533.64 508.72 538.52 510.30 C 541.26 510.87 544.19 510.72 546.84 509.76 C 559.13 505.29 570.96 499.67 583.21 495.10 C 585.44 494.25 587.79 493.75 590.15 493.38 C 599.00 499.19 606.06 507.22 614.51 513.57 C 618.59 516.88 623.16 519.65 626.66 523.65 C 626.42 526.52 625.90 529.36 625.15 532.14 C 622.94 540.65 621.40 549.31 620.12 558.00 C 619.40 562.88 617.54 567.80 618.63 572.77 C 619.86 578.53 624.88 582.84 630.37 584.46 C 644.81 588.41 659.56 591.08 674.18 594.24 C 677.60 594.75 681.14 595.00 684.57 594.35 C 688.58 592.64 691.73 589.02 693.03 584.87 C 696.85 573.65 700.25 562.29 703.98 551.04 C 704.60 549.50 705.06 547.41 706.97 547.05 C 714.65 544.79 722.77 546.13 730.64 545.58 C 731.90 547.20 733.11 548.88 734.13 550.69 C 739.93 561.18 745.78 571.65 751.92 581.95 C 753.91 585.47 756.98 588.75 761.19 589.32 C 764.25 588.73 766.97 587.04 769.93 586.09 C 782.65 581.79 795.30 577.31 807.96 572.83 C 813.40 571.15 818.73 567.50 820.48 561.83 C 822.00 554.03 818.57 546.59 816.90 539.13 C 815.34 532.31 812.75 525.79 811.17 518.98 C 810.58 516.06 809.60 512.47 812.07 510.11 C 820.33 501.43 829.72 493.76 837.06 484.22 C 838.61 482.20 840.86 479.98 843.67 480.87 C 857.79 483.71 871.67 487.63 885.72 490.78 C 894.26 492.89 902.84 486.81 905.99 479.05 C 912.60 463.92 919.24 448.80 925.16 433.38 C 928.01 426.77 926.50 418.63 921.39 413.57 C 917.93 410.39 913.32 408.99 909.27 406.77 C 900.04 402.29 890.81 397.82 881.46 393.59 C 879.69 392.76 878.17 391.52 876.68 390.29 C 876.65 387.48 876.54 384.68 876.14 381.90 C 875.14 375.76 875.70 369.53 875.42 363.35 C 874.95 356.43 873.19 349.45 874.43 342.52 C 886.97 334.79 899.69 327.30 911.81 318.89 C 918.07 314.47 921.26 305.84 918.54 298.53 C 916.32 292.71 912.94 287.44 909.88 282.05 C 903.62 271.07 897.45 260.03 890.71 249.33 C 887.75 244.42 882.79 240.63 877.08 239.67 C 870.89 238.97 865.55 242.83 860.08 245.08 C 849.94 249.46 840.10 254.50 829.87 258.65 C 827.93 257.47 826.06 256.19 824.45 254.60 C 818.51 248.81 812.05 243.56 805.24 238.82 C 800.56 235.45 794.87 233.22 791.48 228.31 C 791.49 224.88 791.37 221.43 791.95 218.04 C 793.40 209.10 793.83 200.03 795.07 191.06 C 795.40 187.15 795.65 183.19 795.18 179.30 C 793.63 174.19 789.34 169.85 784.06 168.71 C 772.39 166.06 760.78 163.13 749.01 160.93 C 740.64 159.43 732.39 157.30 724.00 155.92 C 716.72 155.26 709.88 160.44 707.74 167.29 Z" />
<path fill="#3285eb" opacity="1.00" d=" M 699.09 293.00 C 715.94 291.02 733.46 293.56 748.47 301.70 C 762.94 309.07 774.56 321.23 782.54 335.27 C 789.20 347.37 793.47 361.07 792.88 375.00 C 793.94 404.08 779.83 434.45 754.42 449.57 C 741.62 457.07 726.83 461.33 711.98 461.33 C 695.07 461.91 678.34 456.56 663.95 447.88 C 646.72 437.50 634.39 420.01 628.77 400.84 C 624.45 385.35 624.45 368.62 628.76 353.12 C 634.28 334.64 646.05 317.91 662.09 307.08 C 672.99 299.36 685.94 294.88 699.09 293.00 Z" />
</g>
<g id="#ffffffff">
<path fill="#ffffff" opacity="1.00" d=" M 371.17 116.08 C 377.85 114.65 385.49 114.55 391.36 118.56 C 395.78 121.08 398.46 125.52 401.66 129.32 C 453.40 190.54 504.66 252.20 557.69 312.32 C 563.10 318.68 570.58 324.93 570.57 334.02 C 571.41 342.31 566.20 350.35 558.77 353.77 C 553.59 356.37 547.66 356.28 542.02 356.17 C 520.01 356.15 498.00 356.19 475.99 356.12 C 469.36 355.83 462.29 359.51 460.05 366.01 C 452.90 383.88 446.17 402.56 433.24 417.23 C 421.25 430.40 406.12 440.26 390.55 448.69 C 371.76 457.93 353.21 468.39 337.98 482.96 C 325.64 494.11 314.87 507.05 306.44 521.40 C 291.28 548.04 283.25 578.45 281.35 608.96 C 280.30 617.62 280.33 626.42 281.34 635.08 C 282.77 655.97 287.76 676.63 296.10 695.84 C 303.76 712.88 313.82 728.85 326.07 742.96 C 336.90 754.51 348.32 765.61 361.37 774.64 C 390.27 795.24 424.54 808.64 460.01 811.44 C 470.32 811.82 480.64 811.88 490.95 811.43 C 527.77 808.46 562.78 792.52 591.24 769.31 C 602.10 760.17 613.08 751.06 622.53 740.43 C 625.76 736.79 627.28 731.83 626.67 727.01 C 626.78 723.62 623.88 721.37 621.22 719.88 C 613.77 715.76 606.14 711.97 598.49 708.25 C 594.63 706.41 591.38 703.20 589.84 699.18 C 587.44 693.84 588.83 687.55 591.86 682.77 C 594.18 679.05 598.29 677.02 602.27 675.56 C 638.72 662.56 674.87 648.75 711.19 635.38 C 719.26 632.33 728.87 632.96 736.10 637.86 C 742.32 641.83 745.80 648.75 748.28 655.48 C 758.82 687.69 769.21 719.95 778.88 752.44 C 781.58 760.54 785.10 769.27 782.46 777.87 C 781.01 783.23 776.57 787.55 771.16 788.81 C 762.58 791.00 753.95 787.77 746.50 783.70 C 739.01 780.28 731.57 774.90 722.94 775.86 C 717.33 777.18 713.82 782.21 710.69 786.64 C 697.49 806.57 682.60 825.64 664.20 841.04 C 643.87 858.94 619.69 871.61 595.58 883.59 C 569.11 896.69 540.75 906.32 511.37 909.99 C 476.19 914.73 440.26 911.83 405.84 903.51 C 371.68 894.85 338.55 881.35 308.85 862.27 C 292.67 851.42 277.50 838.99 263.96 824.98 C 237.52 796.55 216.63 763.05 202.26 727.01 C 190.64 698.37 184.14 667.75 181.98 636.97 C 180.70 628.05 181.45 619.00 181.28 610.03 C 181.10 603.29 182.43 596.66 182.46 589.94 C 185.57 553.96 195.72 518.62 212.13 486.45 C 221.40 467.54 232.86 449.65 246.53 433.60 C 256.91 421.03 269.32 410.34 280.19 398.21 C 285.62 392.48 291.27 386.64 294.36 379.24 C 297.05 373.78 295.11 367.14 291.47 362.61 C 287.36 358.01 281.00 356.23 275.01 356.19 C 255.33 356.12 235.65 356.17 215.98 356.14 C 209.22 355.94 202.05 354.72 196.66 350.34 C 191.93 346.72 189.04 340.97 188.57 335.07 C 188.42 329.90 190.67 324.93 193.73 320.86 C 248.18 255.98 302.85 191.27 358.04 127.01 C 361.89 122.84 365.46 117.77 371.17 116.08 Z" />
<path fill="#ffffff" opacity="1.00" d=" M 707.74 167.29 C 709.88 160.44 716.72 155.26 724.00 155.92 C 732.39 157.30 740.64 159.43 749.01 160.93 C 760.78 163.13 772.39 166.06 784.06 168.71 C 789.34 169.85 793.63 174.19 795.18 179.30 C 795.65 183.19 795.40 187.15 795.07 191.06 C 793.83 200.03 793.40 209.10 791.95 218.04 C 791.37 221.43 791.49 224.88 791.48 228.31 C 794.87 233.22 800.56 235.45 805.24 238.82 C 812.05 243.56 818.51 248.81 824.45 254.60 C 826.06 256.19 827.93 257.47 829.87 258.65 C 840.10 254.50 849.94 249.46 860.08 245.08 C 865.55 242.83 870.89 238.97 877.08 239.67 C 882.79 240.63 887.75 244.42 890.71 249.33 C 897.45 260.03 903.62 271.07 909.88 282.05 C 912.94 287.44 916.32 292.71 918.54 298.53 C 921.26 305.84 918.07 314.47 911.81 318.89 C 899.69 327.30 886.97 334.79 874.43 342.52 C 873.19 349.45 874.95 356.43 875.42 363.35 C 875.70 369.53 875.14 375.76 876.14 381.90 C 876.54 384.68 876.65 387.48 876.68 390.29 C 878.17 391.52 879.69 392.76 881.46 393.59 C 890.81 397.82 900.04 402.29 909.27 406.77 C 913.32 408.99 917.93 410.39 921.39 413.57 C 926.50 418.63 928.01 426.77 925.16 433.38 C 919.24 448.80 912.60 463.92 905.99 479.05 C 902.84 486.81 894.26 492.89 885.72 490.78 C 871.67 487.63 857.79 483.71 843.67 480.87 C 840.86 479.98 838.61 482.20 837.06 484.22 C 829.72 493.76 820.33 501.43 812.07 510.11 C 809.60 512.47 810.58 516.06 811.17 518.98 C 812.75 525.79 815.34 532.31 816.90 539.13 C 818.57 546.59 822.00 554.03 820.48 561.83 C 818.73 567.50 813.40 571.15 807.96 572.83 C 795.30 577.31 782.65 581.79 769.93 586.09 C 766.97 587.04 764.25 588.73 761.19 589.32 C 756.98 588.75 753.91 585.47 751.92 581.95 C 745.78 571.65 739.93 561.18 734.13 550.69 C 733.11 548.88 731.90 547.20 730.64 545.58 C 722.77 546.13 714.65 544.79 706.97 547.05 C 705.06 547.41 704.60 549.50 703.98 551.04 C 700.25 562.29 696.85 573.65 693.03 584.87 C 691.73 589.02 688.58 592.64 684.57 594.35 C 681.14 595.00 677.60 594.75 674.18 594.24 C 659.56 591.08 644.81 588.41 630.37 584.46 C 624.88 582.84 619.86 578.53 618.63 572.77 C 617.54 567.80 619.40 562.88 620.12 558.00 C 621.40 549.31 622.94 540.65 625.15 532.14 C 625.90 529.36 626.42 526.52 626.66 523.65 C 623.16 519.65 618.59 516.88 614.51 513.57 C 606.06 507.22 599.00 499.19 590.15 493.38 C 587.79 493.75 585.44 494.25 583.21 495.10 C 570.96 499.67 559.13 505.29 546.84 509.76 C 544.19 510.72 541.26 510.87 538.52 510.30 C 533.64 508.72 530.51 504.37 528.05 500.13 C 519.07 484.93 510.29 469.60 502.24 453.89 C 498.03 446.02 501.74 435.44 509.41 431.20 C 519.88 425.01 530.45 418.97 541.13 413.15 C 545.02 411.19 546.29 406.78 547.84 403.06 C 555.77 399.07 563.90 395.49 571.82 391.47 C 586.84 383.99 598.55 370.43 604.48 354.81 C 609.72 341.30 610.35 325.94 606.14 312.08 C 602.14 298.59 591.80 288.52 582.52 278.47 C 576.35 271.32 569.65 264.65 563.47 257.51 C 557.61 250.81 549.13 245.25 547.61 235.84 C 546.80 227.60 552.36 220.30 558.77 215.75 C 569.55 207.82 580.46 200.08 591.38 192.36 C 595.75 189.38 600.42 185.99 605.97 186.17 C 611.50 185.81 616.91 188.26 620.85 192.05 C 630.50 201.61 639.07 212.21 648.85 221.64 C 652.08 221.37 655.21 220.45 658.23 219.29 C 668.00 215.67 678.14 213.14 688.38 211.23 C 690.63 210.66 693.11 210.54 695.08 209.17 C 697.36 207.58 697.70 204.59 698.45 202.13 C 701.17 190.43 703.97 178.71 707.74 167.29 M 699.09 293.00 C 685.94 294.88 672.99 299.36 662.09 307.08 C 646.05 317.91 634.28 334.64 628.76 353.12 C 624.45 368.62 624.45 385.35 628.77 400.84 C 634.39 420.01 646.72 437.50 663.95 447.88 C 678.34 456.56 695.07 461.91 711.98 461.33 C 726.83 461.33 741.62 457.07 754.42 449.57 C 779.83 434.45 793.94 404.08 792.88 375.00 C 793.47 361.07 789.20 347.37 782.54 335.27 C 774.56 321.23 762.94 309.07 748.47 301.70 C 733.46 293.56 715.94 291.02 699.09 293.00 Z" />
</g>
</svg>
